<svg xmlns="http://www.w3.org/2000/svg" xmlns:xlink="http://www.w3.org/1999/xlink" viewBox="0 0 143.69 150"><defs><style>.cls-1{fill:url(#linear-gradient);}.cls-2{fill:url(#linear-gradient-2);}.cls-3{fill:url(#linear-gradient-3);}.cls-4{fill:url(#linear-gradient-4);}.cls-5{fill:url(#linear-gradient-5);}.cls-6{fill:url(#linear-gradient-6);}</style><linearGradient id="linear-gradient" x1="50.54" y1="53.68" x2="110.82" y2="114" gradientUnits="userSpaceOnUse"><stop offset="0.45" stop-color="#4a4453"/><stop offset="1" stop-color="#2c2d49"/></linearGradient><linearGradient id="linear-gradient-2" x1="85.73" y1="108.47" x2="85.73" y2="49.01" gradientTransform="translate(159.24 157.28) rotate(180)" gradientUnits="userSpaceOnUse"><stop offset="0" stop-color="#e3f6cc"/><stop offset="0.57" stop-color="#b3ecbc"/><stop offset="1" stop-color="#80e1b7"/></linearGradient><linearGradient id="linear-gradient-3" x1="-26.67" y1="-202.23" x2="30.82" y2="-144.72" gradientTransform="matrix(0.17, 0.19, -0.2, 0.22, 36.61, 113.5)" gradientUnits="userSpaceOnUse"><stop offset="0" stop-color="#2c2d49"/><stop offset="0.69" stop-color="#4a4453"/></linearGradient><linearGradient id="linear-gradient-4" x1="97.96" y1="47.42" x2="101.74" y2="47.42" xlink:href="#linear-gradient"/><linearGradient id="linear-gradient-5" x1="103.1" y1="49.31" x2="106.89" y2="49.31" xlink:href="#linear-gradient"/><linearGradient id="linear-gradient-6" x1="92.92" y1="45.53" x2="96.7" y2="45.53" xlink:href="#linear-gradient"/></defs><g id="Layer_2" data-name="Layer 2"><g id="Code"><ellipse class="cls-1" cx="71.84" cy="75" rx="71.84" ry="75"/></g><g id="Icon_sublayer" data-name="Icon sublayer"><path class="cls-2" d="M108.51,46v67a5.4,5.4,0,0,1-7.33,5L38.29,93.89l.22.08V26.79a5.4,5.4,0,0,1,7.33-5l62.89,24.11"/><ellipse class="cls-3" cx="71.96" cy="72.1" rx="18.18" ry="20.31" transform="translate(-26.55 46.17) rotate(-30.31)"/></g><g id="Super_Layer" data-name="Super Layer"><circle class="cls-4" cx="99.85" cy="47.42" r="1.89"/><circle class="cls-5" cx="104.99" cy="49.31" r="1.89"/><circle class="cls-6" cx="94.81" cy="45.53" r="1.89"/></g></g></svg>