<svg xmlns="http://www.w3.org/2000/svg" xmlns:xlink="http://www.w3.org/1999/xlink" viewBox="0 0 143.69 150"><defs><style>.cls-1{fill:url(#linear-gradient);}.cls-2{fill:url(#linear-gradient-2);}.cls-3{fill:url(#New_Gradient_Swatch);}.cls-4{fill:url(#linear-gradient-3);}.cls-5{fill:url(#linear-gradient-4);}.cls-6{fill:url(#linear-gradient-5);}.cls-7{fill:url(#linear-gradient-6);}.cls-8{fill:url(#linear-gradient-7);}.cls-9{fill:url(#linear-gradient-8);}.cls-10{fill:#f2f2f2;}.cls-11{fill:url(#linear-gradient-9);}.cls-12{fill:url(#linear-gradient-10);}</style><linearGradient id="linear-gradient" x1="50.54" y1="53.68" x2="110.82" y2="114" gradientUnits="userSpaceOnUse"><stop offset="0.45" stop-color="#4a4453"/><stop offset="1" stop-color="#2c2d49"/></linearGradient><linearGradient id="linear-gradient-2" x1="75.9" y1="119.95" x2="67.79" y2="28.9" gradientUnits="userSpaceOnUse"><stop offset="0.3" stop-color="#5a43de"/><stop offset="0.38" stop-color="#6044de"/><stop offset="0.49" stop-color="#6b46de"/><stop offset="0.59" stop-color="#ac55db"/><stop offset="0.69" stop-color="#f266d8"/><stop offset="1" stop-color="#ffe8e8"/></linearGradient><linearGradient id="New_Gradient_Swatch" x1="91.52" y1="104.68" x2="98.71" y2="111.88" gradientTransform="matrix(1.01, 0.01, -0.01, 1.01, 1.21, -2.23)" gradientUnits="userSpaceOnUse"><stop offset="0.16" stop-color="#5a45d8"/><stop offset="0.96" stop-color="#5a43de"/></linearGradient><linearGradient id="linear-gradient-3" x1="69.16" y1="96.26" x2="64.38" y2="42.56" gradientUnits="userSpaceOnUse"><stop offset="0" stop-color="#8154f0"/><stop offset="0.08" stop-color="#8a57ee"/><stop offset="0.22" stop-color="#a45fe7"/><stop offset="0.4" stop-color="#cd6cdd"/><stop offset="0.57" stop-color="#fc7bd1"/><stop offset="0.87" stop-color="#f7c0c2"/></linearGradient><linearGradient id="linear-gradient-4" x1="50.9" y1="67.18" x2="62.64" y2="67.18" gradientUnits="userSpaceOnUse"><stop offset="0" stop-color="#f7c0c2"/><stop offset="0.17" stop-color="#f8b7c4"/><stop offset="0.45" stop-color="#fa9dca"/><stop offset="0.74" stop-color="#fc7bd1"/></linearGradient><linearGradient id="linear-gradient-5" x1="57.35" y1="80.26" x2="56.9" y2="75.21" gradientUnits="userSpaceOnUse"><stop offset="0" stop-color="#754fcd"/><stop offset="0.13" stop-color="#7e52cd"/><stop offset="0.35" stop-color="#985ace"/><stop offset="0.62" stop-color="#c168cf"/><stop offset="0.95" stop-color="#fa7ad1"/><stop offset="0.95" stop-color="#fc7bd1"/></linearGradient><linearGradient id="linear-gradient-6" x1="49.49" y1="67.24" x2="60.19" y2="67.24" gradientUnits="userSpaceOnUse"><stop offset="0" stop-color="#f7c0c2"/><stop offset="0.16" stop-color="#f8b7c4"/><stop offset="0.44" stop-color="#fa9dca"/><stop offset="0.73" stop-color="#fc7bd1"/></linearGradient><linearGradient id="linear-gradient-7" x1="54.85" y1="80.41" x2="54.41" y2="75.41" gradientUnits="userSpaceOnUse"><stop offset="0" stop-color="#8154f0"/><stop offset="0.13" stop-color="#8a57ee"/><stop offset="0.35" stop-color="#a45fe7"/><stop offset="0.63" stop-color="#cd6cdd"/><stop offset="0.9" stop-color="#fc7bd1"/></linearGradient><linearGradient id="linear-gradient-8" x1="5.44" y1="23.99" x2="9.54" y2="28.09" xlink:href="#linear-gradient"/><linearGradient id="linear-gradient-9" x1="74.37" y1="101.27" x2="73.02" y2="86.13" gradientUnits="userSpaceOnUse"><stop offset="0" stop-color="#2c2d49"/><stop offset="0.69" stop-color="#4a4453"/></linearGradient><linearGradient id="linear-gradient-10" x1="75.44" y1="101.18" x2="73.98" y2="84.86" gradientUnits="userSpaceOnUse"><stop offset="0.1" stop-color="#2c2d49"/><stop offset="0.33" stop-color="#2e2e4a"/><stop offset="0.48" stop-color="#4a4453"/><stop offset="0.99" stop-color="#4a4453"/></linearGradient></defs><g id="Layer_2" data-name="Layer 2"><g id="Background"><ellipse class="cls-1" cx="71.84" cy="75" rx="71.84" ry="75"/></g><g id="Layer_7" data-name="Layer 7"><path class="cls-2" d="M99.87,112a6.31,6.31,0,0,1-9.47,5.46L47,92.43A6.32,6.32,0,0,1,43.82,87V36.82a6.31,6.31,0,0,1,9.46-5.47L96.71,56.42a6.32,6.32,0,0,1,3.16,5.47"/></g><g id="Code_Backdro" data-name="Code Backdro"><path class="cls-3" d="M99.69,91.28l-5.51,4.41a.09.09,0,0,0,0,.07c.1,1.06,2.07,23.93-5.79,23.74l5.59-.76a6.43,6.43,0,0,0,5.63-5.53c.82-4.87.3-20.17.24-21.87A.08.08,0,0,0,99.69,91.28Z"/></g><g id="Code"><path class="cls-4" d="M40.56,89.3V41.06a6.06,6.06,0,0,1,9.09-5.26L91.34,59.92a6.06,6.06,0,0,1,3,5.26v48.24a6.05,6.05,0,0,1-9.08,5.26L43.59,94.56A6.09,6.09,0,0,1,40.56,89.3Z"/><path class="cls-5" d="M51.84,60.06h0a1.52,1.52,0,0,1,1.86.58l8.94,13.64s-2.24.42-2.45-.15-6.29-8.31-9-11.73A1.52,1.52,0,0,1,51.84,60.06Z"/><polygon class="cls-6" points="62.63 74.28 52.75 83.02 51.77 82.99 60.77 74 62.63 74.28"/><polygon class="cls-7" points="51.84 60.06 49.49 61.8 57.2 74.43 60.19 74.13 51.84 60.06"/><polygon class="cls-8" points="57.2 74.3 48.6 83.02 51.93 82.99 60.77 74 57.2 74.3"/><circle class="cls-9" cx="6.89" cy="25.44" r="5"/><circle class="cls-10" cx="105.04" cy="39.97" r="1.89"/><polygon class="cls-11" points="64.5 86.89 82.89 96.51 82.89 100.51 64.5 90.89 64.5 86.89"/><polygon class="cls-12" points="82.89 96.53 64.5 86.89 66.18 85.55 84.57 95.19 82.89 96.53 84.57 95.19 84.57 99.17 82.89 100.51 82.89 96.53"/></g></g></svg>